<?xml version="1.0" encoding="UTF-8" standalone="no"?>
<!-- Created with Inkscape (http://www.inkscape.org/) -->

<svg
   xmlns:dc="http://purl.org/dc/elements/1.1/"
   xmlns:cc="http://creativecommons.org/ns#"
   xmlns:rdf="http://www.w3.org/1999/02/22-rdf-syntax-ns#"
   xmlns:svg="http://www.w3.org/2000/svg"
   xmlns="http://www.w3.org/2000/svg"
   version="1.1"
   width="213.5374"
   height="89.257454"
   id="svg3025">
  <defs
     id="defs3027" />
  <metadata
     id="metadata3030">
    <rdf:RDF>
      <cc:Work
         rdf:about="">
        <dc:format>image/svg+xml</dc:format>
        <dc:type
           rdf:resource="http://purl.org/dc/dcmitype/StillImage" />
        <dc:title></dc:title>
      </cc:Work>
    </rdf:RDF>
  </metadata>
  <path
     d="M 93.619727,3.8983581 C 92.856822,2.3687956 91.708712,1.2319418 90.144131,0.53657243 89.44501,0.22015436 88.709619,0.07632797 87.942962,0.17137846 86.347114,0.36398076 85.131469,1.2156831 84.142193,2.4200729 83.694455,2.9691145 83.348021,3.574436 83.135408,4.2698054 h 10.63565 C 93.712276,4.122227 93.674756,4.0021632 93.619727,3.8983581"
     id="path5"
     style="fill:#000000;fill-opacity:1" />
  <path
     d="m 107.90356,4.3711092 c 0.77291,0 1.36948,-0.5915642 1.36573,-1.3544695 -0.004,-0.7579025 -0.60532,-1.3407121 -1.38073,-1.3357094 -0.75165,0.00375 -1.34197,0.5915642 -1.34572,1.3357094 -0.01,0.7591533 0.59282,1.3544695 1.36072,1.3544695"
     id="path7"
     style="fill:#000000;fill-opacity:1" />
  <path
     d="m 97.400485,4.3711092 c 0.794172,0.010005 1.381984,-0.5565456 1.385736,-1.3269548 0.0025,-0.7666573 -0.564049,-1.3544695 -1.3182,-1.3632241 -0.796673,-0.010005 -1.380733,0.5527936 -1.383234,1.3319574 -0.0075,0.7629053 0.557796,1.3457148 1.315698,1.3582215"
     id="path9"
     style="fill:#000000;fill-opacity:1" />
  <path
     d="m 69.051678,4.3711092 c 0.765406,-0.00375 1.335709,-0.5728043 1.335709,-1.3419628 0.005,-0.7754119 -0.580308,-1.3482161 -1.361973,-1.3482161 -0.764156,0.00375 -1.339462,0.5815589 -1.344464,1.3407121 -0.0013,0.7766625 0.58406,1.3494668 1.370728,1.3494668"
     id="path11"
     style="fill:#000000;fill-opacity:1" />
  <path
     d="m 79.513485,4.3711092 c 0.776662,0 1.369477,-0.5965669 1.361973,-1.3607228 -0.01,-0.7516492 -0.604071,-1.3294561 -1.361973,-1.3294561 -0.760404,0 -1.341963,0.5728042 -1.351968,1.3294561 -0.01376,0.7691586 0.574054,1.3607228 1.351968,1.3607228"
     id="path13"
     style="fill:#000000;fill-opacity:1" />
  <path
     d="m 117.54243,17.506836 c 0.0325,-0.005 0.07,-0.02251 0.12382,-0.04127 V 14.32765 c -0.16884,0 -0.31142,0.0038 -0.45899,0 -0.46275,-0.03377 -0.78917,-0.35769 -0.79418,-0.814183 -0.0112,-1.031798 -0.0112,-2.059844 0,-3.08789 0.006,-0.4489884 0.32268,-0.7641558 0.76791,-0.7979238 0.15759,-0.0075 0.31392,0 0.474,0 V 7.0325228 h -8.45324 V 5.3066061 H 67.668443 v 1.7484287 h -8.146827 v 2.5338458 c 0.807929,0.1275678 1.001782,0.3601914 1.001782,1.1568644 v 2.344996 c 0,0.935497 -0.102555,1.075571 -0.990526,1.306944 v 3.096645 c 0.670356,0.07004 0.975518,0.327674 0.985523,0.871713 0.01626,1.005534 0.01626,2.008567 0,3.014101 -0.0063,0.500265 -0.307663,0.796673 -0.797924,0.857955 -0.07004,0.0088 -0.137573,0.02752 -0.220117,0.04878 v 1.539568 1.537066 c 0.837946,0.146328 1.023044,0.370197 1.023044,1.180628 v 2.342494 c 0,0.937998 -0.106307,1.081824 -1.023044,1.3182 v 2.854016 c 0,0.07254 0.01376,0.142576 0.01876,0.211362 0.777914,0.101304 1.004284,0.360191 1.004284,1.146859 0.0013,0.795423 0,1.588344 0,2.382516 0,0.920489 -0.123816,1.081824 -0.993028,1.306944 v 2.571366 h 8.149329 v 2.620142 h 41.548321 v -2.64641 h 8.42322 v -2.581371 c -0.0875,-0.0038 -0.15133,-0.0075 -0.21136,-0.01126 -0.7454,-0.02376 -1.02805,-0.308914 -1.02805,-1.044305 0,-0.834193 0.035,-1.665885 -0.0112,-2.495075 -0.0475,-0.911734 0.32142,-1.289435 1.18313,-1.225651 0.0225,0 0.0375,-0.01751 0.08,-0.04252 V 30.18357 c -0.21512,-0.02251 -0.41397,-0.03002 -0.60532,-0.07004 -0.39771,-0.09255 -0.64785,-0.386455 -0.64785,-0.790419 -0.004,-1.043054 -0.007,-2.081106 0,-3.12416 0.005,-0.403964 0.29891,-0.727886 0.70413,-0.781665 0.18009,-0.02126 0.36144,-0.03002 0.54153,-0.04753 v -3.112904 c -0.0925,-0.01 -0.17009,-0.01251 -0.23887,-0.01876 -0.76041,-0.02001 -1.00554,-0.275146 -1.00554,-1.045555 V 18.73248 c 0,-0.99928 0.14383,-1.155613 1.1306,-1.225651 m -18.773718,-6.89116 c 0.0088,-0.576556 0.442735,-0.9830221 1.029297,-0.9880248 0.954261,-0.0075 1.907261,-0.00375 2.862771,-0.00375 0.93049,0 1.85974,0 2.78273,0.00375 0.65785,0 1.07307,0.4114688 1.07557,1.0618138 0.004,0.855455 0.004,1.705906 0,2.561361 0,0.634087 -0.42523,1.090579 -1.05931,1.094331 -1.89351,0.01501 -3.78952,0.01501 -5.681772,0 -0.582809,-0.0038 -1.001782,-0.436482 -1.010536,-1.01679 -0.01376,-0.90298 -0.01376,-1.810962 0.0012,-2.712691 m -17.933275,0.100053 c 0.0025,-0.7579024 0.331426,-1.0880778 1.083075,-1.0918298 h 6.544726 6.510959 c 0.77166,0.00375 1.108088,0.3364287 1.11059,1.1130908 0.0012,0.815434 0.0012,1.63712 -0.0025,2.451302 0,0.781666 -0.387706,1.160617 -1.169371,1.160617 -4.31104,0.005 -8.624581,0.005 -12.943125,0 -0.767908,0 -1.12935,-0.361442 -1.134352,-1.144358 -0.0063,-0.826689 -0.005,-1.659631 0,-2.488822 m 0,7.834161 c 0.0075,-0.701622 0.350186,-1.038051 1.061814,-1.038051 h 6.584747 6.467185 c 0.796674,0 1.131852,0.336429 1.134353,1.12935 0.0013,0.819185 0.0013,1.63837 0,2.460057 -0.0025,0.742894 -0.402714,1.136853 -1.145609,1.136853 H 81.953531 c -0.746647,0 -1.11059,-0.363943 -1.118094,-1.121846 -0.0063,-0.852953 -0.0063,-1.707156 0,-2.566363 M 94.912914,30.119786 H 88.41071 81.908507 c -0.67786,0 -1.060564,-0.35769 -1.070569,-1.041804 -0.01251,-0.900478 -0.01,-1.807209 0,-2.71269 0.01001,-0.587813 0.356439,-0.948004 0.948004,-0.961761 0.82919,-0.01626 1.659631,-0.0075 2.488822,-0.0075 H 94.83037 c 0.937999,0 1.253166,0.311415 1.253166,1.236907 0,0.770409 0.0013,1.538317 0,2.304974 -0.0025,0.811681 -0.370197,1.181878 -1.170622,1.181878 m 1.170622,4.267266 c 0.0013,0.830441 0.0013,1.657131 0,2.491324 -0.0025,0.762905 -0.406466,1.163117 -1.174374,1.163117 -4.307288,0.0038 -8.619578,0.0038 -12.929367,0 -0.749148,0 -1.131852,-0.368946 -1.141857,-1.105587 -0.0088,-0.880467 -0.01,-1.763436 0,-2.640152 0.01001,-0.652847 0.368946,-0.995529 1.030548,-0.995529 2.193665,-0.0038 4.386079,0 6.577243,0 h 6.539724 c 0.73539,0 1.095582,0.353938 1.098083,1.086827 M 63.204822,10.533132 c 0.0063,-0.5565454 0.316418,-0.8929741 0.859207,-0.9004781 0.902979,-0.012507 1.809711,-0.017509 2.715192,0 0.569052,0.0075 0.900478,0.3726981 0.901729,0.9555071 0.005,0.929244 0.005,1.859738 0,2.78523 -0.0013,0.577807 -0.325173,0.94175 -0.901729,0.958009 -0.905481,0.02876 -1.809712,0.02876 -2.71019,0.005 -0.561548,-0.01626 -0.855454,-0.346434 -0.864209,-0.905481 -0.005,-0.484007 0,-0.965512 0,-1.448269 0,-0.482756 -0.005,-0.964262 0,-1.44952 m 0,15.788386 c 0.0063,-0.544039 0.293906,-0.886721 0.824188,-0.90423 0.930494,-0.02126 1.859738,-0.02126 2.783979,0.005 0.537785,0.01251 0.864209,0.386455 0.867961,0.916737 0.005,0.949254 0.005,1.906012 0,2.86152 -0.0038,0.549041 -0.347685,0.907982 -0.901729,0.916736 -0.905481,0.01751 -1.809712,0.01376 -2.71019,0 -0.544039,-0.0088 -0.857956,-0.346434 -0.864209,-0.897977 -0.005,-0.482756 0,-0.969264 0,-1.45077 0,-0.482757 -0.005,-0.964262 0,-1.447019 m 3.416815,11.719975 c -0.754151,0.0088 -1.509552,0.0038 -2.264953,0 -0.158834,0 -0.322671,-0.01501 -0.479004,-0.05003 -0.427728,-0.09255 -0.660351,-0.377701 -0.669106,-0.811681 -0.01126,-0.506519 -0.0038,-1.01679 -0.0038,-1.52456 0,-0.482756 -0.005,-0.965513 0,-1.447019 0.0088,-0.5653 0.335178,-0.899227 0.901729,-0.907982 0.870462,-0.0063 1.737173,-0.0038 2.603883,0 0.606572,0.0088 0.969265,0.372698 0.970516,0.97802 0.005,0.890473 0.005,1.784698 0,2.67392 0,0.720382 -0.332677,1.07432 -1.059313,1.089328 M 67.68095,21.310106 c -0.0088,0.521527 -0.321421,0.894225 -0.835444,0.907983 -0.955508,0.02626 -1.908514,0.02626 -2.859019,0 -0.474001,-0.01376 -0.77291,-0.360192 -0.776662,-0.82794 -0.01001,-1.006785 -0.01001,-2.009818 -0.0013,-3.0116 0.0025,-0.507769 0.316418,-0.845449 0.829191,-0.859206 0.916737,-0.01751 1.833473,-0.01751 2.74896,0 0.552793,0.01376 0.88547,0.377701 0.894225,0.930494 0.0063,0.482757 0,0.966764 0,1.448269 0,0.474002 0.01001,0.941751 0,1.412 m 2.693931,-10.5431 c 0.0038,-0.739142 0.406465,-1.1393548 1.14936,-1.1431068 h 2.751462 c 0.915486,0 1.833473,0 2.74896,0.00375 0.706625,0 1.124347,0.4189728 1.128099,1.1318508 0.0088,0.816684 0.01126,1.635869 0,2.450052 -0.005,0.702873 -0.435231,1.139355 -1.131851,1.139355 -1.820968,0.01126 -3.641935,0.01126 -5.464153,0 -0.769158,0 -1.181877,-0.431479 -1.18688,-1.20564 -0.0013,-0.794172 -0.0013,-1.58084 0.005,-2.376263 m 6.611011,11.471093 c -0.90423,0.0063 -1.805959,0 -2.71144,0 -0.914236,0 -1.833474,0.0063 -2.752712,0 -0.71413,-0.0088 -1.143107,-0.440233 -1.146859,-1.160616 -0.0063,-0.820436 -0.0063,-1.634618 0,-2.452553 0.0038,-0.689116 0.418972,-1.109339 1.109339,-1.113091 h 5.536691 c 0.704124,0.0038 1.128099,0.423975 1.131851,1.135603 0.0088,0.802927 0.0088,1.609605 0,2.412532 -0.0038,0.757902 -0.420223,1.174373 -1.16687,1.178125 m 1.16687,4.301035 c 0.0088,0.816684 0.0088,1.63837 0,2.452553 -0.005,0.714129 -0.431479,1.128099 -1.128099,1.128099 -0.929244,0.005 -1.858487,0 -2.787731,0 -0.916737,0 -1.833474,0.005 -2.750211,0 -0.665353,0 -1.108088,-0.445237 -1.11184,-1.116843 -0.0063,-0.825439 -0.0063,-1.65588 0,-2.48382 0.0038,-0.671606 0.411468,-1.115592 1.07432,-1.115592 1.865991,-0.01251 3.739486,-0.01251 5.607979,0 0.681612,0 1.09183,0.443986 1.095582,1.135603 m -7.777881,7.871681 c 0.0038,-0.679111 0.428977,-1.11059 1.110589,-1.11059 0.929244,-0.0038 1.857237,0 2.78523,0 0.934246,0 1.859738,-0.0038 2.788981,0 0.641591,0 1.083076,0.425226 1.09058,1.060563 0.01626,0.856705 0.01626,1.710909 0,2.566364 -0.0075,0.675358 -0.448989,1.108088 -1.125598,1.114341 -1.835976,0.0038 -3.669449,0.0038 -5.502923,0 -0.704124,-0.0063 -1.143107,-0.465247 -1.146859,-1.175624 -0.0063,-0.821686 -0.0063,-1.63712 0,-2.455054 m 35.695211,6.904918 c -0.13132,0.02126 -0.27139,0.01126 -0.40271,0.01126 -11.4736,0.005 -22.93969,0.005 -34.40453,0 -0.137573,0 -0.276397,0.01 -0.408967,-0.01126 -0.39521,-0.06128 -0.48901,-0.185099 -0.460244,-0.632837 h 36.121691 c 0.035,0.438984 -0.05,0.566551 -0.44524,0.632837 m 0.44899,-4.392333 c 0,0.646593 -0.43773,1.11184 -1.08433,1.11184 -1.87224,0.01501 -3.74073,0.01501 -5.610479,0 -0.624082,0 -1.053059,-0.438983 -1.061814,-1.055561 -0.0088,-0.877966 -0.0088,-1.759684 0,-2.640152 0.0088,-0.622831 0.437732,-1.034299 1.068067,-1.039302 0.951756,-0.0038 1.903516,0 2.860276,0 0.91173,0 1.83097,-0.0038 2.7477,0 0.66536,0 1.08058,0.420223 1.08058,1.095582 0.004,0.841697 0.004,1.684645 0,2.527593 m 0.006,-7.787887 c -0.0112,0.577807 -0.46274,0.981771 -1.0443,0.984273 -0.95301,0.005 -1.90727,0 -2.85777,0 -0.92924,0 -1.85724,0.005 -2.787733,0 -0.607823,0 -1.046806,-0.388957 -1.065566,-0.99803 -0.02001,-0.904231 -0.01751,-1.809712 0,-2.712691 0.01626,-0.569052 0.421474,-0.991777 0.991777,-0.995529 1.931032,-0.01751 3.860802,-0.01751 5.794332,0 0.54904,0.0038 0.96301,0.421474 0.96801,0.974268 0.0263,0.916736 0.0263,1.829721 0.001,2.747709 m 0.008,-7.979238 c -0.01,0.649095 -0.45149,1.07307 -1.10934,1.081824 -0.93175,0.0063 -1.86099,0 -2.78898,0 -0.90298,0 -1.80471,0.0063 -2.713948,0 -0.731639,-0.0038 -1.14936,-0.406466 -1.158115,-1.148109 -0.0088,-0.82669 -0.0088,-1.657131 0,-2.487572 0.01376,-0.676609 0.430228,-1.086827 1.100584,-1.086827 1.868499,-0.0088 3.739489,-0.0088 5.607979,0 0.63284,0 1.05181,0.403965 1.06182,1.038051 0.0175,0.866711 0.0175,1.734672 0,2.602633 m 7.17631,14.51521 c 0,0.461495 0.003,0.919238 0,1.378232 -0.002,0.591564 -0.26139,0.94175 -0.8417,0.968014 -0.92549,0.04127 -1.85974,0.04127 -2.78523,-0.0038 -0.56405,-0.02626 -0.85545,-0.393959 -0.86046,-0.968014 -0.0138,-0.917988 -0.0138,-1.833474 0,-2.750211 0.005,-0.652847 0.36395,-0.990526 1.03055,-0.995529 0.82919,-0.0038 1.65963,-0.0038 2.48382,0 0.63159,0.005 0.96551,0.333927 0.97052,0.96051 0.005,0.472751 0.002,0.943001 0.002,1.41075 m 0,-7.902948 c 0,0.481506 0.009,0.963011 0,1.444517 -0.008,0.566551 -0.33768,0.900478 -0.90173,0.906732 -0.88172,0.01126 -1.75969,0.01126 -2.6414,0 -0.59282,-0.0063 -0.938,-0.35769 -0.943,-0.958009 -0.0138,-0.929244 -0.0138,-1.854735 0.002,-2.787731 0.002,-0.596567 0.33017,-0.943001 0.93925,-0.96051 0.87921,-0.02251 1.75843,-0.02251 2.63514,0 0.61533,0.01751 0.90924,0.356439 0.90924,0.97802 0.003,0.460244 0,0.915486 0,1.376981 m 0,-7.890441 c 0,0.4715 0.003,0.94175 0,1.409498 -0.005,0.584061 -0.30516,0.930495 -0.86796,0.941751 -0.90548,0.01751 -1.81222,0.02376 -2.71394,0 -0.5528,-0.01626 -0.89673,-0.366445 -0.90173,-0.927993 -0.0175,-0.951756 -0.0225,-1.907263 0,-2.860269 0.009,-0.570303 0.36769,-0.916737 0.943,-0.925492 0.88172,-0.01376 1.75843,-0.01376 2.6414,0 0.58531,0.0088 0.89423,0.350186 0.89923,0.950505 0.003,0.472751 0,0.943001 0,1.412 m 0,-6.478441 c -0.008,0.595316 -0.31267,0.927993 -0.91299,0.94175 -0.87421,0.01876 -1.75593,0.02376 -2.63515,-0.005 -0.62533,-0.01626 -0.93424,-0.366444 -0.93925,-1.003032 -0.006,-0.904231 -0.006,-1.80596 0,-2.71019 0.005,-0.6465934 0.33893,-0.9855235 0.98178,-0.9955288 0.85295,-0.0075 1.7109,-0.0075 2.56511,0 0.61157,0.010005 0.93424,0.3301754 0.94175,0.9467528 0.005,0.471501 0,0.939249 0,1.414501 -10e-4,0.466498 0.007,0.936748 -10e-4,1.41075"
     id="path15"
     style="fill:#000000;fill-opacity:1" />
  <path
     d="m 60.198225,88.393238 -0.302661,-0.641591 c -0.06879,-0.135071 -0.221367,-0.221367 -0.425225,-0.117562 -0.286403,0.13257 -0.929244,0.32017 -1.384486,0.32017 -1.674639,0 -2.875277,-1.333208 -2.875277,-4.514898 0,-3.092893 1.014289,-4.413594 2.907794,-4.413594 0.524029,0 0.912985,0.136322 1.301942,0.322671 0.202608,0.103805 0.373949,0.03252 0.457743,-0.133821 l 0.270144,-0.524028 c 0.101303,-0.1876 0.03252,-0.391458 -0.135072,-0.490261 -0.592815,-0.356439 -1.284432,-0.441484 -1.944783,-0.441484 -2.587625,0 -4.381077,2.097364 -4.381077,5.661757 0,3.723228 1.574586,5.83685 4.279773,5.83685 1.031798,0 1.63837,-0.238877 2.079855,-0.456492 0.133821,-0.06754 0.235125,-0.221368 0.15133,-0.407717 m 9.218647,0.441485 V 78.177812 c 0,-0.201357 -0.16884,-0.336429 -0.355189,-0.336429 h -0.641591 c -0.186349,0 -0.356439,0.133822 -0.356439,0.336429 v 4.379827 H 63.78513 v -4.379827 c 0,-0.201357 -0.17009,-0.336429 -0.355188,-0.336429 H 62.78585 c -0.185099,0 -0.352688,0.133822 -0.352688,0.336429 v 10.656911 c 0,0.182597 0.167589,0.33893 0.352688,0.33893 h 0.644092 c 0.185098,0 0.355188,-0.155083 0.355188,-0.33893 v -5.057687 h 4.278523 v 5.057687 c 0,0.182597 0.17009,0.33893 0.356439,0.33893 h 0.641591 c 0.186349,0 0.355189,-0.155083 0.355189,-0.33893 m 8.748397,0 V 88.2269 c 0,-0.203858 -0.171341,-0.355189 -0.37645,-0.355189 h -4.107182 v -4.075915 h 3.788262 c 0.205109,0 0.356439,-0.152581 0.356439,-0.375199 v -0.520276 c 0,-0.1876 -0.15133,-0.341432 -0.356439,-0.341432 h -3.788262 v -3.449332 h 4.127192 c 0.220117,0 0.35644,-0.16884 0.35644,-0.370197 v -0.560297 c 0,-0.201357 -0.171341,-0.336429 -0.35644,-0.336429 H 72.66985 c -0.188851,0 -0.35644,0.133821 -0.35644,0.336429 v 10.65691 c 0,0.182597 0.167589,0.33893 0.35644,0.33893 h 5.138979 c 0.185099,-0.0012 0.35644,-0.156333 0.35644,-0.34018 M 90.2742,88.884749 89.428751,78.165306 C 89.411242,77.943938 89.25741,77.842634 89.056053,77.842634 H 87.78788 c -0.16884,0 -0.32017,0.118813 -0.35644,0.270144 l -1.839727,7.036237 c -0.152581,0.556546 -0.202607,1.284432 -0.253885,1.908514 -0.07004,-0.624082 -0.121314,-1.370728 -0.256386,-1.893506 l -1.840978,-7.051245 c -0.03502,-0.135072 -0.17009,-0.270144 -0.34018,-0.270144 h -1.303193 c -0.200106,0 -0.370196,0.133821 -0.385204,0.322672 l -0.864209,10.669417 c -0.01501,0.182597 0.101304,0.33893 0.271394,0.33893 h 0.844198 c 0.171341,0 0.271394,-0.120064 0.288904,-0.306413 l 0.489009,-7.861676 c 0.03252,-0.422724 0.03252,-1.742175 0.03252,-2.281212 0.102554,0.572805 0.17009,1.537067 0.375199,2.281212 l 1.80721,6.661038 c 0.06879,0.238877 0.153832,0.340181 0.356439,0.340181 h 0.995529 c 0.20636,0 0.288904,-0.101304 0.35769,-0.340181 l 1.809711,-6.661038 c 0.183848,-0.692868 0.285152,-1.80721 0.352688,-2.281212 0,0.572805 0.03502,1.892256 0.05378,2.298721 L 88.820928,88.886 c 0.01751,0.16884 0.117563,0.287653 0.322672,0.287653 h 0.894225 c 0.187599,0 0.253885,-0.120064 0.236375,-0.288904 m 10.04909,-0.03377 V 78.165306 c 0,-0.1876 -0.16884,-0.322672 -0.35394,-0.322672 h -0.594066 c -0.182597,0 -0.353938,0.133821 -0.353938,0.322672 v 7.522745 c 0,0.829191 0.101304,1.744677 0.203859,2.487572 -0.203859,-0.576557 -0.391458,-1.33571 -0.727887,-2.097364 l -3.515617,-8.0005 c -0.06879,-0.15008 -0.207611,-0.235125 -0.392709,-0.235125 h -1.283181 c -0.201357,0 -0.355189,0.101304 -0.355189,0.322672 v 10.685675 c 0,0.167589 0.16884,0.322672 0.355189,0.322672 h 0.591564 c 0.18885,0 0.356439,-0.155083 0.356439,-0.322672 v -7.659068 c 0,-0.644092 -0.115061,-1.774693 -0.205109,-2.502579 0.205109,0.727886 0.426477,1.504549 0.747897,2.211174 l 3.584404,8.001751 c 0.08379,0.17009 0.237626,0.271394 0.406466,0.271394 h 1.181878 c 0.1851,0 0.35394,-0.155083 0.35394,-0.322672 m 5.74055,-0.03377 v -0.371447 c 0,-0.1876 -0.13507,-0.356439 -0.33768,-0.356439 h -0.8442 v -9.161116 h 0.8442 c 0.20135,0 0.33768,-0.172592 0.33768,-0.358941 v -0.370197 c 0,-0.187599 -0.13507,-0.356439 -0.33768,-0.356439 h -3.04162 c -0.20636,0 -0.34018,0.16884 -0.34018,0.356439 v 0.368946 c 0,0.186349 0.13382,0.358941 0.34018,0.358941 h 0.8442 v 9.161116 h -0.8442 c -0.20636,0 -0.34018,0.16884 -0.34018,0.356439 v 0.371448 c 0,0.186349 0.13382,0.356439 0.34018,0.356439 h 3.04162 c 0.20135,0.0013 0.33768,-0.16884 0.33768,-0.355189 m 8.72838,-10.077853 v -0.560297 c 0,-0.201357 -0.15133,-0.336429 -0.33768,-0.336429 h -6.5097 c -0.20386,0 -0.3702,0.133821 -0.3702,0.336429 v 0.560297 c 0,0.201357 0.16634,0.33768 0.3702,0.33768 h 2.56886 v 9.758933 c 0,0.182597 0.16884,0.33893 0.35644,0.33893 h 0.65785 c 0.18635,0 0.35644,-0.155082 0.35644,-0.33893 V 79.07704 h 2.57011 c 0.18635,0 0.33768,-0.136323 0.33768,-0.33768 m 8.0893,10.095363 v -0.595317 c 0,-0.183847 -0.14883,-0.335178 -0.33643,-0.335178 h -4.34731 c -0.33893,0 -0.67411,0.06629 -0.88047,0.101304 0.20636,-0.153831 0.44274,-0.407716 0.62534,-0.747897 l 4.56617,-7.911702 c 0.10131,-0.171341 0.18635,-0.3752 0.18635,-0.555295 v -0.612826 c 0,-0.201357 -0.15133,-0.336429 -0.33893,-0.336429 h -5.71428 c -0.20261,0 -0.37145,0.133822 -0.37145,0.336429 v 0.560298 c 0,0.187599 0.16884,0.337679 0.37145,0.337679 h 3.88831 c 0.39146,0 0.72414,-0.03252 0.97927,-0.103805 -0.20136,0.172592 -0.45649,0.427727 -0.62533,0.714129 l -4.6137,7.979239 c -0.0725,0.118813 -0.15383,0.287652 -0.15383,0.475252 v 0.694119 c 0,0.182597 0.15383,0.33893 0.33893,0.33893 h 6.08823 c 0.18885,0 0.33768,-0.155083 0.33768,-0.33893"
     id="path17"
     style="fill:#000000;fill-opacity:1" />
  <path
     d="m 7.2200854,58.446082 v -0.559047 c 0,-0.202608 -0.152581,-0.33893 -0.3376793,-0.33893 H 0.37144772 c -0.20260761,0 -0.3714472951,0.135071 -0.3714472951,0.33893 v 0.559047 c 0,0.203858 0.1688396851,0.33893 0.3714472951,0.33893 H 2.9428135 v 9.755181 c 0,0.1876 0.1688397,0.341431 0.3551887,0.341431 h 0.6603507 c 0.1850984,0 0.353938,-0.153831 0.353938,-0.341431 v -9.755181 h 2.5701152 c 0.1850983,0 0.3376793,-0.133822 0.3376793,-0.33893 M 14.76034,68.540193 v -0.605321 c 0,-0.202608 -0.168839,-0.353938 -0.371447,-0.353938 H 10.27921 v -4.078417 h 3.789513 c 0.201357,0 0.352687,-0.150079 0.352687,-0.371447 v -0.524028 c 0,-0.183848 -0.15133,-0.33768 -0.352687,-0.33768 H 10.27921 V 58.82003 h 4.125942 c 0.220117,0 0.355188,-0.17009 0.355188,-0.373948 v -0.559047 c 0,-0.202608 -0.168839,-0.33893 -0.355188,-0.33893 H 9.2649216 c -0.186349,0 -0.353938,0.135071 -0.353938,0.33893 v 10.653158 c 0,0.1876 0.167589,0.341431 0.353938,0.341431 h 5.1402304 c 0.186349,0 0.355188,-0.153831 0.355188,-0.341431 m 8.308163,-0.438983 -0.303911,-0.64034 c -0.06879,-0.133821 -0.221368,-0.222618 -0.423975,-0.122565 -0.286402,0.136322 -0.929244,0.325172 -1.388238,0.325172 -1.669636,0 -2.872775,-1.334458 -2.872775,-4.513647 0,-3.099146 1.015539,-4.416096 2.907794,-4.416096 0.52653,0 0.914236,0.136323 1.303192,0.32017 0.203859,0.102555 0.372698,0.03627 0.456493,-0.13257 l 0.271394,-0.525279 c 0.101304,-0.186349 0.03252,-0.390207 -0.137573,-0.491511 -0.590314,-0.355189 -1.283182,-0.438983 -1.942282,-0.438983 -2.590126,0 -4.382328,2.097364 -4.382328,5.664258 0,3.720727 1.574587,5.831848 4.279774,5.831848 1.031798,0 1.639621,-0.235125 2.079854,-0.452741 0.133821,-0.06879 0.235125,-0.220116 0.152581,-0.407716 m 9.217396,0.438983 V 57.887035 c 0,-0.202608 -0.17009,-0.33893 -0.355188,-0.33893 h -0.642842 c -0.186349,0 -0.355188,0.135071 -0.355188,0.33893 v 4.382327 h -4.277272 v -4.382327 c 0,-0.202608 -0.170091,-0.33893 -0.355189,-0.33893 h -0.644092 c -0.185098,0 -0.355189,0.135071 -0.355189,0.33893 v 10.653158 c 0,0.1876 0.170091,0.341431 0.355189,0.341431 h 0.644092 c 0.185098,0 0.355189,-0.153831 0.355189,-0.341431 v -5.055185 h 4.277272 v 5.055185 c 0,0.1876 0.168839,0.341431 0.355188,0.341431 h 0.642842 c 0.183847,0 0.355188,-0.153831 0.355188,-0.341431 m 10.269205,0.01876 V 57.870776 c 0,-0.186349 -0.17009,-0.322671 -0.355189,-0.322671 H 41.60585 c -0.185099,0 -0.355189,0.135071 -0.355189,0.322671 v 7.527748 c 0,0.825439 0.102555,1.739674 0.202608,2.48382 -0.202608,-0.575306 -0.387706,-1.33571 -0.724135,-2.096114 l -3.52062,-7.999249 C 37.142229,57.6344 37.007157,57.548105 36.820808,57.548105 h -1.283181 c -0.205109,0 -0.35644,0.103805 -0.35644,0.322671 v 10.688177 c 0,0.16884 0.167589,0.322671 0.35644,0.322671 h 0.589062 c 0.186349,0 0.355189,-0.153831 0.355189,-0.322671 v -7.661569 c 0,-0.641591 -0.117562,-1.774693 -0.202608,-2.50258 0.202608,0.727887 0.423976,1.507051 0.744146,2.214927 l 3.584404,7.999249 c 0.08505,0.17009 0.237626,0.272644 0.406465,0.272644 h 1.18563 c 0.183848,0 0.355189,-0.153831 0.355189,-0.322671 m 5.739298,-0.03252 v -0.372698 c 0,-0.18885 -0.137573,-0.355189 -0.33893,-0.355189 h -0.845449 v -9.164868 h 0.845449 c 0.201357,0 0.33893,-0.16884 0.33893,-0.355189 v -0.373948 c 0,-0.185098 -0.137573,-0.355189 -0.33893,-0.355189 h -3.042866 c -0.203858,0 -0.33893,0.170091 -0.33893,0.355189 v 0.373948 c 0,0.186349 0.135072,0.355189 0.33893,0.355189 h 0.842948 v 9.164868 h -0.842948 c -0.203858,0 -0.33893,0.166339 -0.33893,0.355189 v 0.372698 c 0,0.186349 0.135072,0.355188 0.33893,0.355188 h 3.042866 c 0.202608,0 0.33893,-0.168839 0.33893,-0.355188 m 8.13182,-2.807742 c 0,-1.810961 -0.879217,-2.537597 -2.129882,-3.079135 L 53.367097,62.23309 c -0.946753,-0.403965 -1.742176,-0.807929 -1.742176,-1.804709 0,-1.050558 0.574055,-1.679642 1.961042,-1.679642 0.692868,0 1.183128,0.155083 1.740925,0.323922 0.136322,0.03252 0.337679,-0.08379 0.388956,-0.272644 l 0.137573,-0.540287 c 0.04878,-0.185099 -0.05253,-0.388957 -0.202607,-0.438984 -0.509021,-0.168839 -1.371979,-0.355188 -2.064847,-0.355188 -2.198668,0 -3.415564,1.281931 -3.415564,3.010349 0,1.893505 1.283181,2.50383 2.518838,3.025357 l 0.794172,0.33893 c 0.896726,0.390207 1.454522,0.880467 1.454522,1.927273 0,1.134353 -0.691617,1.897258 -2.044836,1.897258 -0.845449,0 -1.659632,-0.273895 -2.266204,-0.492762 -0.236375,-0.08254 -0.390207,0.05128 -0.440234,0.237627 l -0.168839,0.656598 c -0.05003,0.1876 0.01751,0.33893 0.236375,0.423976 0.642842,0.236375 1.692149,0.4715 2.621393,0.4715 2.48632,0.0013 3.550636,-1.535816 3.550636,-3.242973 m 8.411968,2.382516 -0.306413,-0.64034 c -0.06754,-0.133821 -0.218866,-0.222618 -0.421474,-0.122565 -0.287653,0.136322 -0.929243,0.325172 -1.385736,0.325172 -1.67589,0 -2.876528,-1.334458 -2.876528,-4.513647 0,-3.099146 1.01554,-4.416096 2.907795,-4.416096 0.525279,0 0.915486,0.136323 1.303192,0.32017 0.202607,0.102555 0.372698,0.03627 0.457743,-0.13257 l 0.270143,-0.525279 c 0.101304,-0.186349 0.03502,-0.390207 -0.135071,-0.491511 -0.592815,-0.355189 -1.284432,-0.438983 -1.946034,-0.438983 -2.586374,0 -4.379826,2.097364 -4.379826,5.664258 0,3.720727 1.574586,5.831848 4.279773,5.831848 1.030547,0 1.640872,-0.235125 2.078604,-0.452741 0.137573,-0.06879 0.238877,-0.220116 0.153832,-0.407716 m 9.219897,0.438983 V 57.887035 c 0,-0.202608 -0.167589,-0.33893 -0.355189,-0.33893 h -0.642841 c -0.186349,0 -0.355189,0.135071 -0.355189,0.33893 v 4.382327 h -4.278522 v -4.382327 c 0,-0.202608 -0.16884,-0.33893 -0.35644,-0.33893 h -0.64034 c -0.187599,0 -0.356439,0.135071 -0.356439,0.33893 v 10.653158 c 0,0.1876 0.16884,0.341431 0.356439,0.341431 h 0.64034 c 0.1876,0 0.35644,-0.153831 0.35644,-0.341431 v -5.055185 h 4.278522 v 5.055185 c 0,0.1876 0.16884,0.341431 0.355189,0.341431 h 0.642841 c 0.186349,0 0.355189,-0.153831 0.355189,-0.341431 m 8.745895,0 v -0.605321 c 0,-0.202608 -0.172591,-0.353938 -0.373948,-0.353938 h -4.108432 v -4.078417 h 3.788262 c 0.201357,0 0.353938,-0.150079 0.353938,-0.371447 v -0.524028 c 0,-0.183848 -0.152581,-0.33768 -0.353938,-0.33768 H 78.321602 V 58.82003 h 4.12344 c 0.221367,0 0.35894,-0.17009 0.35894,-0.373948 v -0.559047 c 0,-0.202608 -0.172591,-0.33893 -0.35894,-0.33893 h -5.13898 c -0.186349,0 -0.353938,0.135071 -0.353938,0.33893 v 10.653158 c 0,0.1876 0.167589,0.341431 0.353938,0.341431 h 5.13898 c 0.186349,0 0.35894,-0.153831 0.35894,-0.341431 m 14.016195,-3.059125 v -7.594033 c 0,-0.202608 -0.168839,-0.33893 -0.355188,-0.33893 h -0.644093 c -0.182597,0 -0.353938,0.135071 -0.353938,0.33893 v 7.492729 c 0,2.009818 -0.945502,2.418785 -2.197417,2.418785 -1.624613,0 -2.129881,-0.99803 -2.129881,-2.621392 v -7.290122 c 0,-0.202608 -0.171341,-0.33893 -0.35769,-0.33893 h -0.642841 c -0.186349,0 -0.352688,0.135071 -0.352688,0.33893 v 7.594033 c 0,2.131132 0.995529,3.480599 3.4831,3.480599 2.349998,0.0013 3.550636,-1.249414 3.550636,-3.480599 m 10.254193,3.077885 V 57.870776 c 0,-0.186349 -0.17009,-0.322671 -0.35518,-0.322671 h -0.58907 c -0.1876,0 -0.35769,0.135071 -0.35769,0.322671 v 7.527748 c 0,0.825439 0.10006,1.739674 0.20386,2.48382 -0.20386,-0.575306 -0.39146,-1.33571 -0.72789,-2.096114 l -3.51811,-7.999249 c -0.0675,-0.152581 -0.20386,-0.238876 -0.39146,-0.238876 h -1.28569 c -0.201353,0 -0.350182,0.103805 -0.350182,0.322671 v 10.688177 c 0,0.16884 0.166339,0.322671 0.350182,0.322671 h 0.59282 c 0.18885,0 0.35644,-0.153831 0.35644,-0.322671 v -7.661569 c 0,-0.641591 -0.11631,-1.774693 -0.20136,-2.50258 0.20136,0.727887 0.42022,1.507051 0.74415,2.214927 l 3.58315,7.999249 c 0.0838,0.17009 0.23888,0.272644 0.40647,0.272644 h 1.18312 c 0.1876,0 0.35644,-0.153831 0.35644,-0.322671 m 5.7418,-0.03252 v -0.372698 c 0,-0.18885 -0.13632,-0.355189 -0.34018,-0.355189 h -0.84294 v -9.164868 h 0.84294 c 0.20386,0 0.34018,-0.16884 0.34018,-0.355189 v -0.373948 c 0,-0.185098 -0.13632,-0.355189 -0.34018,-0.355189 h -3.04161 c -0.20386,0 -0.34018,0.170091 -0.34018,0.355189 v 0.373948 c 0,0.186349 0.13632,0.355189 0.34018,0.355189 h 0.8442 v 9.164868 h -0.8442 c -0.20386,0 -0.34018,0.166339 -0.34018,0.355189 v 0.372698 c 0,0.186349 0.13632,0.355188 0.34018,0.355188 h 3.04161 c 0.20386,0 0.34018,-0.168839 0.34018,-0.355188 m 9.51631,-10.639401 c 0.0525,-0.183848 -0.08,-0.33893 -0.27015,-0.33893 h -0.72663 c -0.18385,0 -0.35144,0.135071 -0.40397,0.33893 l -2.19991,8.188099 c -0.11882,0.418972 -0.27265,1.281931 -0.37145,1.858487 -0.0838,-0.595316 -0.23513,-1.439515 -0.35644,-1.858487 l -2.19617,-8.188099 c -0.0675,-0.235125 -0.22136,-0.33893 -0.44273,-0.33893 h -0.86046 c -0.18385,0 -0.32142,0.153831 -0.25388,0.355188 l 3.16293,10.635649 c 0.0513,0.1876 0.27014,0.341432 0.45524,0.341432 h 0.9455 c 0.18885,0 0.40772,-0.153832 0.45774,-0.341432 l 3.06038,-10.651907 z m 7.79664,10.653158 v -0.605321 c 0,-0.202608 -0.16759,-0.353938 -0.37145,-0.353938 h -4.10843 v -4.078417 h 3.78826 c 0.20261,0 0.35519,-0.150079 0.35519,-0.371447 v -0.524028 c 0,-0.183848 -0.15258,-0.33768 -0.35519,-0.33768 h -3.78826 V 58.82003 h 4.12469 c 0.22262,0 0.35519,-0.17009 0.35519,-0.373948 v -0.559047 c 0,-0.202608 -0.16759,-0.33893 -0.35519,-0.33893 h -5.13898 c -0.18635,0 -0.35269,0.135071 -0.35269,0.33893 v 10.653158 c 0,0.1876 0.16634,0.341431 0.35269,0.341431 h 5.13898 c 0.1876,0 0.35519,-0.153831 0.35519,-0.341431 m 9.49754,-0.06629 c -0.67786,-1.893506 -1.18062,-3.176687 -1.33445,-3.499359 -0.3702,-0.795422 -1.04806,-1.673389 -2.06235,-1.84473 1.52206,-0.100053 2.70394,-1.151862 2.70394,-2.82525 0,-1.063065 -0.58907,-2.756464 -3.36304,-2.756464 h -2.85777 c -0.18635,0 -0.35519,0.135071 -0.35519,0.33893 v 10.653158 c 0,0.1876 0.16884,0.341431 0.35519,0.341431 h 0.66035 c 0.1826,0 0.35394,-0.153831 0.35394,-0.341431 V 63.70512 h 0.89548 c 1.25191,0 1.77469,0.746646 2.1649,1.437013 0.49026,0.864209 0.81043,2.063596 1.28568,3.534377 0.0488,0.152582 0.17009,0.205109 0.30266,0.205109 h 1.01554 c 0.25138,0 0.32017,-0.168839 0.23512,-0.407716 m -2.09736,-7.96423 c 0,1.251915 -0.82669,1.979801 -2.1624,1.979801 h -1.64087 v -3.704467 h 1.82472 c 1.30444,0 1.97855,0.726635 1.97855,1.724666 m 10.29797,5.209016 c 0,-1.810961 -0.88047,-2.537597 -2.12988,-3.079135 l -0.93175,-0.406466 c -0.9455,-0.403965 -1.74092,-0.807929 -1.74092,-1.804709 0,-1.050558 0.5728,-1.679642 1.95729,-1.679642 0.69537,0 1.18813,0.155083 1.74593,0.323922 0.13507,0.03252 0.33768,-0.08379 0.38645,-0.272644 l 0.13632,-0.540287 c 0.05,-0.185099 -0.05,-0.388957 -0.20135,-0.438984 -0.50777,-0.168839 -1.37198,-0.355188 -2.0661,-0.355188 -2.19742,0 -3.41306,1.281931 -3.41306,3.010349 0,1.893505 1.28443,2.50383 2.52009,3.025357 l 0.79417,0.33893 c 0.89672,0.390207 1.45577,0.880467 1.45577,1.927273 0,1.134353 -0.69412,1.897258 -2.04734,1.897258 -0.84545,0 -1.65713,-0.273895 -2.26495,-0.492762 -0.23763,-0.08254 -0.39021,0.05128 -0.44148,0.237627 l -0.16759,0.656598 c -0.05,0.1876 0.015,0.33893 0.23512,0.423976 0.64284,0.236375 1.6934,0.4715 2.62264,0.4715 2.48507,0.0013 3.55064,-1.535816 3.55064,-3.242973 m 5.15524,2.807742 v -0.372698 c 0,-0.18885 -0.13632,-0.355189 -0.33893,-0.355189 h -0.8442 v -9.164868 h 0.8442 c 0.20136,0 0.33893,-0.16884 0.33893,-0.355189 v -0.373948 c 0,-0.185098 -0.13632,-0.355189 -0.33893,-0.355189 h -3.04412 c -0.20261,0 -0.33893,0.170091 -0.33893,0.355189 v 0.373948 c 0,0.186349 0.13507,0.355189 0.33893,0.355189 h 0.84545 v 9.164868 h -0.84545 c -0.20261,0 -0.33893,0.166339 -0.33893,0.355189 v 0.372698 c 0,0.186349 0.13507,0.355188 0.33893,0.355188 h 3.04412 c 0.20261,0 0.33893,-0.168839 0.33893,-0.355188 m 8.72838,-10.080354 V 57.88703 c 0,-0.202608 -0.15133,-0.33893 -0.33517,-0.33893 h -6.51221 c -0.20136,0 -0.37145,0.135071 -0.37145,0.33893 v 0.559047 c 0,0.203858 0.17009,0.33893 0.37145,0.33893 h 2.57011 v 9.755181 c 0,0.1876 0.16884,0.341431 0.35644,0.341431 h 0.65785 c 0.18385,0 0.35394,-0.153831 0.35394,-0.341431 v -9.755181 h 2.57387 c 0.18384,0 0.33517,-0.133822 0.33517,-0.33893 m 8.17685,10.062844 -3.31551,-10.621891 c -0.07,-0.235125 -0.2689,-0.33893 -0.45525,-0.33893 h -1.06431 c -0.1876,0 -0.39021,0.103805 -0.45899,0.33893 l -3.10916,10.621891 c -0.07,0.203859 0.0513,0.372698 0.23513,0.372698 h 0.82919 c 0.18635,0 0.35394,-0.153831 0.40396,-0.341431 l 0.76291,-2.821499 h 3.78576 l 0.81043,2.821499 c 0.0525,0.1876 0.27139,0.341431 0.45774,0.341431 h 0.87797 c 0.1876,0 0.30641,-0.168839 0.24013,-0.372698 m -2.70769,-3.939592 h -3.16168 l 1.30319,-4.905105 c 0.11756,-0.438984 0.20136,-0.915487 0.25264,-1.385737 0.07,0.455242 0.13632,0.964263 0.25513,1.385737 l 1.35072,4.905105 z m -2.19617,-8.423224 c 0,-0.453991 -0.35769,-0.795423 -0.83169,-0.795423 -0.40271,0 -0.77541,0.340181 -0.77541,0.795423 0,0.475252 0.3727,0.82919 0.79417,0.82919 0.474,0 0.81293,-0.355188 0.81293,-0.82919 m 2.95782,0 c 0,-0.453991 -0.35518,-0.795423 -0.82794,-0.795423 -0.40771,0 -0.77791,0.340181 -0.77791,0.795423 0,0.475252 0.3702,0.82919 0.79292,0.82919 0.47651,0 0.81293,-0.355188 0.81293,-0.82919 m 9.22365,2.299972 V 57.88703 c 0,-0.202608 -0.15133,-0.33893 -0.33893,-0.33893 h -6.5097 c -0.20261,0 -0.37145,0.135071 -0.37145,0.33893 v 0.559047 c 0,0.203858 0.16884,0.33893 0.37145,0.33893 h 2.57136 v 9.755181 c 0,0.1876 0.16884,0.341431 0.35519,0.341431 h 0.6591 c 0.1851,0 0.35519,-0.153831 0.35519,-0.341431 v -9.755181 h 2.56886 c 0.1876,0 0.33893,-0.133822 0.33893,-0.33893"
     id="path19"
     style="fill:#000000;fill-opacity:1" />
  <path
     d="m 213.06791,0.46948 0,88.31838"
     id="path3108"
     style="fill:none;stroke:#000000;stroke-width:0.93897641;stroke-linecap:butt;stroke-linejoin:miter;stroke-miterlimit:4;stroke-opacity:1;stroke-dasharray:none" />
</svg>
